<?xml version="1.0" encoding="utf-8"?>
<!-- Generator: Adobe Illustrator 21.0.0, SVG Export Plug-In . SVG Version: 6.00 Build 0)  -->
<svg version="1.1" id="Layer_1" xmlns="http://www.w3.org/2000/svg" xmlns:xlink="http://www.w3.org/1999/xlink" x="0px" y="0px"
	 viewBox="0 0 130 160" style="enable-background:new 0 0 130 160;" xml:space="preserve">
<style type="text/css">
	.st0{clip-path:url(#SVGID_2_);}
	.st1{clip-path:url(#SVGID_4_);}
	.st2{clip-path:url(#SVGID_6_);}
	.st3{clip-path:url(#SVGID_8_);}
	.st4{clip-path:url(#SVGID_12_);}
	.st5{fill:#EE3C3A;}
	.st6{clip-path:url(#SVGID_14_);}
	.st7{clip-path:url(#SVGID_18_);}
	.st8{clip-path:url(#SVGID_22_);}
	.st9{clip-path:url(#SVGID_24_);}
	.st10{clip-path:url(#SVGID_28_);}
	.st11{clip-path:url(#SVGID_30_);}
	.st12{clip-path:url(#SVGID_34_);}
	.st13{fill:none;}
	.st14{fill-rule:evenodd;clip-rule:evenodd;fill:none;}
	.st15{clip-path:url(#SVGID_46_);}
	.st16{clip-path:url(#SVGID_48_);}
	.st17{clip-path:url(#SVGID_52_);}
	.st18{clip-path:url(#SVGID_54_);}
	.st19{clip-path:url(#SVGID_56_);fill:#EE3A39;}
	.st20{clip-path:url(#SVGID_58_);}
	.st21{clip-path:url(#SVGID_60_);fill:#EE3A39;}
	.st22{clip-path:url(#SVGID_62_);}
	.st23{clip-path:url(#SVGID_64_);fill:#EE3A39;}
	.st24{clip-path:url(#SVGID_66_);}
	.st25{clip-path:url(#SVGID_68_);fill:#EE3A39;}
	.st26{clip-path:url(#SVGID_70_);}
	.st27{clip-path:url(#SVGID_72_);fill:#EE3A39;}
	.st28{clip-path:url(#SVGID_74_);}
	.st29{clip-path:url(#SVGID_76_);fill:#EE3A39;}
	.st30{clip-path:url(#SVGID_78_);}
	.st31{clip-path:url(#SVGID_82_);}
	.st32{clip-path:url(#SVGID_86_);}
	.st33{clip-path:url(#SVGID_90_);}
	.st34{clip-path:url(#SVGID_94_);}
	.st35{clip-path:url(#SVGID_98_);}
	.st36{clip-path:url(#SVGID_102_);}
	.st37{clip-path:url(#SVGID_106_);}
	.st38{clip-path:url(#SVGID_110_);}
	.st39{clip-path:url(#SVGID_114_);}
	.st40{clip-path:url(#SVGID_118_);}
	.st41{clip-path:url(#SVGID_122_);}
	.st42{clip-path:url(#SVGID_126_);}
	.st43{clip-path:url(#SVGID_130_);}
	.st44{clip-path:url(#SVGID_134_);}
	.st45{clip-path:url(#SVGID_138_);}
	.st46{clip-path:url(#SVGID_142_);}
	.st47{clip-path:url(#SVGID_146_);}
	.st48{clip-path:url(#SVGID_150_);}
	.st49{clip-path:url(#SVGID_154_);}
	.st50{clip-path:url(#SVGID_158_);}
</style>
<g>
	<path class="st5" d="M65.4,130.3c-3.9,0-7.9-0.4-10.5-1l0,0c-4.8-1.2-5.4-6.5-6-12.1c-0.7-5.9-1.4-12.6-6.5-16.7
		c-8.7-7.1-13.7-17.4-13.7-28.4c0-20,16.3-36.2,36.2-36.2s36.2,16.3,36.2,36.2c0,11-5,21.3-13.7,28.4c-5.1,4.2-5.9,10.8-6.5,16.6
		c-0.6,5.6-1.2,10.8-5.9,12.1C72.7,130,69.1,130.3,65.4,130.3z M55.7,126.4c4.4,1.1,14.2,1.3,18.6,0c2.6-0.7,3.1-4.1,3.7-9.6
		c0.7-6.1,1.6-13.7,7.6-18.6c8-6.5,12.6-16,12.6-26.1c0-18.3-14.9-33.2-33.2-33.2S31.8,53.8,31.8,72.1c0,10.1,4.6,19.6,12.6,26.1
		c6,4.9,6.9,12.5,7.6,18.7C52.6,122.4,53.1,125.8,55.7,126.4L55.7,126.4z"/>
	<path class="st5" d="M65,160c-1.3,0-2.6-0.2-3.9-0.6l-0.5-0.2c-4.1-1.4-7.1-4.9-7.9-9.2l-0.2-0.8c-0.4-1.5-0.1-3.1,0.7-4.4
		l-1.9-1.9c-0.3-0.3-0.4-0.7-0.4-1.1s0.2-0.8,0.4-1.1l1.9-1.9l-1.8-1.8c-0.6-0.6-0.6-1.5,0-2.1l1.5-1.5l-1.6-1.6
		c-0.6-0.6-0.6-1.5,0-2.1l2.9-2.9c0.6-0.6,1.5-0.6,2.1,0c0.6,0.6,0.6,1.5,0,2.1l-1.8,1.8l1.6,1.6c0.6,0.6,0.6,1.5,0,2.1l-1.5,1.5
		l1.8,1.8c0.6,0.6,0.6,1.5,0,2.1l-1.8,1.9l1.8,1.8c0.3,0.3,0.4,0.7,0.4,1.1s-0.2,0.8-0.4,1.1c-0.7,0.7-1,1.8-0.8,2.8l0.2,0.9
		c0.6,3.3,2.8,5.9,5.9,7l0.5,0.2c1.9,0.6,3.9,0.6,5.8,0c3.3-1.1,5.6-4.1,6-7.5l0.4-2.8c0-0.3,0.2-0.6,0.4-0.8l0.7-0.7l-1.8-1.8
		c-0.6-0.6-0.6-1.5,0-2.1l1.8-1.9l-1.8-1.8c-0.3-0.3-0.4-0.7-0.4-1.1s0.2-0.8,0.4-1.1l1.5-1.5l-1.6-1.6c-0.3-0.3-0.4-0.7-0.4-1.1
		s0.2-0.8,0.4-1.1l0.7-0.7l-0.2-0.1c-0.6-0.5-0.7-1.5-0.2-2.1c0.5-0.6,1.5-0.7,2.1-0.2l1.4,1.2c0.3,0.3,0.5,0.7,0.5,1.1
		c0,0.4-0.1,0.8-0.4,1.1l-0.8,0.8l1.6,1.6c0.3,0.3,0.4,0.7,0.4,1.1s-0.2,0.8-0.4,1.1l-1.5,1.5l1.8,1.8c0.6,0.6,0.6,1.5,0,2.1
		l-1.8,1.9l1.8,1.8c0.3,0.3,0.4,0.7,0.4,1.1c0,0.4-0.2,0.8-0.4,1.1l-1.4,1.4l-0.3,2.3c-0.5,4.5-3.6,8.5-8,10
		C67.6,159.8,66.3,160,65,160z"/>
	<path class="st5" d="M60.6,130.1c-0.6,0-1.2-0.4-1.4-1c0-0.1-0.6-1.6-1.2-4c-0.9-3.7-0.9-7.7-0.1-11.8c0.3-1.6,0.7-4.7,0.7-10.5
		c0-6-1.3-10.9-2.9-14.4c-1,0.8-2.1,1.3-3.3,1.3c-4.1,0-6.9-2-6.9-4.9c0-2.4,1.9-4.9,5.5-4.9c1.7,0,3.5,1.2,5,3.1
		c0.2-0.3,0.3-0.7,0.5-1.1c1.4-3.1,2-6.2,2-7.4c0-0.8,0.6-1.4,1.4-1.5c0.8-0.1,1.5,0.5,1.6,1.3c0,0.1,1.3,8.1,3.5,13.2
		c2.2-5.1,3.4-13.1,3.5-13.2c0.1-0.8,0.8-1.3,1.6-1.3c0.8,0.1,1.4,0.7,1.4,1.5c0,1.2,0.6,4.3,2,7.4c0.2,0.4,0.3,0.7,0.5,1.1
		c1.5-2,3.2-3.1,5-3.1c3.6,0,5.5,2.5,5.5,4.9c0,2.9-2.8,4.9-6.9,4.9c-1.2,0-2.3-0.5-3.3-1.3c-1.6,3.5-2.9,8.4-2.9,14.4
		c0,5.8,0.4,8.9,0.7,10.5c0.8,4.1,0.7,8-0.1,11.8c-0.6,2.4-1.1,3.9-1.2,4c-0.3,0.8-1.2,1.2-1.9,0.9c-0.8-0.3-1.2-1.2-0.9-1.9
		c0,0,0.5-1.4,1-3.6c0.8-3.3,0.8-6.9,0.1-10.5c-0.5-2.5-0.7-6.3-0.7-11.1c0-6.4,1.5-12.6,3.7-16.9c-0.9-1.3-1.6-2.9-2.1-4.4
		c-0.7,2.9-1.7,6.2-3,8.6c-0.4,0.8-1.2,1.3-2.1,1.3c0,0,0,0,0,0c-0.9,0-1.7-0.5-2.1-1.3c-1.2-2.4-2.2-5.7-3-8.6
		c-0.6,1.5-1.3,3.1-2.1,4.4c2.2,4.3,3.7,10.5,3.7,16.9c0,4.8-0.2,8.6-0.7,11.1c-0.7,3.6-0.6,7.2,0.1,10.5c0.5,2.2,1,3.5,1,3.6
		c0.3,0.8-0.1,1.6-0.9,1.9C61,130,60.8,130.1,60.6,130.1z M75.8,85.7c0.6,0.7,1.3,1,1.8,1c1.9,0,3.9-0.7,3.9-1.9
		c0-0.7-0.5-1.9-2.5-1.9C78.1,82.9,77,83.9,75.8,85.7z M51.1,82.9c-2,0-2.5,1.3-2.5,1.9c0,1.3,2,1.9,3.9,1.9c0.6,0,1.2-0.4,1.8-1
		C53,83.9,51.9,82.9,51.1,82.9z"/>
	<path class="st5" d="M64.3,26.4c-0.8,0-1.5-0.7-1.5-1.5V7.4c0-0.8,0.7-1.5,1.5-1.5s1.5,0.7,1.5,1.5v17.5
		C65.8,25.7,65.2,26.4,64.3,26.4z"/>
	<path class="st5" d="M82,28.7c-0.1,0-0.3,0-0.4-0.1c-0.8-0.2-1.3-1-1.1-1.8l4.6-16.8c0.2-0.8,1-1.3,1.8-1.1c0.8,0.2,1.3,1,1.1,1.8
		l-4.6,16.8C83.2,28.2,82.6,28.7,82,28.7z"/>
	<path class="st5" d="M97.7,35.3c-0.3,0-0.5-0.1-0.8-0.2c-0.7-0.4-1-1.3-0.5-2.1l8.8-15.1c0.4-0.7,1.3-1,2.1-0.5
		c0.7,0.4,1,1.3,0.5,2.1L99,34.5C98.7,35,98.2,35.3,97.7,35.3z"/>
	<path class="st5" d="M111.2,45.8c-0.4,0-0.8-0.1-1.1-0.4c-0.6-0.6-0.6-1.5,0-2.1l12.4-12.3c0.6-0.6,1.5-0.6,2.1,0
		c0.6,0.6,0.6,1.5,0,2.1l-12.4,12.3C112,45.6,111.6,45.8,111.2,45.8z"/>
	<path class="st5" d="M48,28.7c-0.7,0-1.3-0.4-1.4-1.1L42,10.7c-0.2-0.8,0.3-1.6,1.1-1.8c0.8-0.2,1.6,0.3,1.8,1.1l4.6,16.8
		c0.2,0.8-0.3,1.6-1.1,1.8C48.3,28.6,48.2,28.7,48,28.7z"/>
	<path class="st5" d="M32.3,35.3c-0.5,0-1-0.3-1.3-0.7l-8.8-15.1c-0.4-0.7-0.2-1.6,0.5-2.1c0.7-0.4,1.6-0.2,2.1,0.5L33.6,33
		c0.4,0.7,0.2,1.6-0.5,2.1C32.8,35.2,32.5,35.3,32.3,35.3z"/>
	<path class="st5" d="M18.8,45.8c-0.4,0-0.8-0.1-1.1-0.4L5.3,33.1c-0.6-0.6-0.6-1.5,0-2.1c0.6-0.6,1.5-0.6,2.1,0l12.4,12.3
		c0.6,0.6,0.6,1.5,0,2.1C19.5,45.6,19.2,45.8,18.8,45.8z"/>
</g>
</svg>
