<?xml version="1.0" encoding="utf-8"?>
<!-- Generator: Adobe Illustrator 21.0.0, SVG Export Plug-In . SVG Version: 6.00 Build 0)  -->
<svg version="1.1" id="Layer_1" xmlns="http://www.w3.org/2000/svg" xmlns:xlink="http://www.w3.org/1999/xlink" x="0px" y="0px"
	 viewBox="0 0 130 160" style="enable-background:new 0 0 130 160;" xml:space="preserve">
<style type="text/css">
	.st0{fill:none;}
	.st1{fill:#172442;}
</style>
<g>
	<ellipse class="st0" cx="65" cy="95.8" rx="4.2" ry="4.2"/>
	<path class="st0" d="M68.9,101.8c-1.1,0.7-2.5,1.2-3.9,1.2c-4,0-7.2-3.2-7.2-7.2c0-1.4,0.4-2.8,1.2-3.9l-4.3-4.3l-10.4,29l29-10.4
		L68.9,101.8z"/>
	<path class="st0" d="M56.8,85.4l4.3,4.3c1.1-0.7,2.5-1.2,3.9-1.2c4,0,7.2,3.2,7.2,7.2c0,1.4-0.4,2.8-1.2,3.9l4.3,4.3l10.4-29
		L56.8,85.4z"/>
	<path class="st0" d="M105.6,97.1c-0.8,0-1.5-0.7-1.5-1.5s0.7-1.5,1.5-1.5h5.3C110,70,90.4,50.6,66.3,49.9v5.3
		c0,0.8-0.7,1.5-1.5,1.5s-1.5-0.7-1.5-1.5v-5.3c-24.1,0.9-43.5,20.5-44.1,44.6h5.3c0.8,0,1.5,0.7,1.5,1.5s-0.7,1.5-1.5,1.5h-5.3
		c0.9,24.1,20.4,43.5,44.6,44.2v-5.3c0-0.8,0.7-1.5,1.5-1.5s1.5,0.7,1.5,1.5v5.3c24.1-0.9,43.5-20.5,44.1-44.6H105.6z M89.6,73.1
		l-12.2,34.2c0,0,0,0,0,0.1v0.1c-0.1,0.3-0.4,0.6-0.7,0.7c0,0-0.1,0-0.1,0.1l0,0l-34.2,12.3c-0.2,0.1-0.3,0.1-0.5,0.1
		c-0.4,0-0.8-0.2-1.1-0.4c-0.4-0.4-0.5-1-0.4-1.6l12.2-34.2l0,0c0-0.1,0.1-0.1,0.1-0.2v-0.1c0-0.1,0.1-0.1,0.1-0.2l0.1-0.1
		c0.1,0,0.1-0.1,0.2-0.1h0.1c0.1,0,0.1-0.1,0.2-0.1l0,0l34.2-12.3c0.2-0.1,0.3-0.1,0.5-0.1c0.4,0,0.8,0.2,1.1,0.4
		C89.7,71.9,89.8,72.5,89.6,73.1z"/>
	<path class="st1" d="M88.2,71.1c-0.2,0-0.3,0-0.5,0.1L53.5,83.4l0,0c-0.1,0-0.1,0.1-0.2,0.1h-0.1c-0.1,0-0.1,0.1-0.2,0.1l-0.1,0.1
		c0,0.1-0.1,0.1-0.1,0.2V84c0,0.1-0.1,0.1-0.1,0.2l0,0l-12.2,34.2c-0.2,0.5-0.1,1.2,0.4,1.6c0.3,0.3,0.7,0.4,1.1,0.4
		c0.2,0,0.3,0,0.5-0.1L76.7,108l0,0c0,0,0.1,0,0.1-0.1c0.3-0.1,0.5-0.4,0.7-0.7v-0.1c0,0,0,0,0-0.1l12.2-34.2
		c0.2-0.5,0.1-1.2-0.4-1.6C89,71.2,88.6,71.1,88.2,71.1z M65,91.6c2.3,0,4.2,1.9,4.2,4.2S67.3,100,65,100c-2.3,0-4.2-1.9-4.2-4.2
		S62.7,91.6,65,91.6z M71,99.7c0.7-1.1,1.2-2.5,1.2-3.9c0-4-3.2-7.2-7.2-7.2c-1.4,0-2.8,0.4-3.9,1.2l-4.3-4.3l29-10.4l-10.4,29
		L71,99.7z M54.6,87.6l4.3,4.3c-0.7,1.1-1.2,2.5-1.2,3.9c0,4,3.2,7.2,7.2,7.2c1.4,0,2.8-0.4,3.9-1.2l4.3,4.4l-29,10.4L54.6,87.6z"/>
	<path class="st1" d="M113.9,95.5c-0.2-26.8-22-48.6-48.9-48.6c-0.1,0-0.1,0-0.2,0l0,0h-0.1c-26.8,0.1-48.6,22-48.6,48.9
		c0,0.1,0,0.1,0,0.2l0,0c0,0,0,0,0,0.1c0.2,26.9,22,48.6,48.9,48.6c0.1,0,0.1,0,0.2,0l0,0c0,0,0,0,0.1,0c26.8-0.2,48.6-22,48.6-48.9
		C113.9,95.7,113.9,95.7,113.9,95.5C113.9,95.6,113.9,95.6,113.9,95.5C113.9,95.6,113.9,95.5,113.9,95.5z M66.7,141.7v-5.3
		c0-0.8-0.7-1.5-1.5-1.5s-1.5,0.7-1.5,1.5v5.3C39.6,141,20,121.6,19.1,97.5h5.3c0.8,0,1.5-0.7,1.5-1.5s-0.7-1.5-1.5-1.5h-5.3
		c0.7-24.2,20-43.7,44.1-44.6v5.3c0,0.8,0.7,1.5,1.5,1.5c0.8,0,1.5-0.7,1.5-1.5v-5.3C90.4,50.6,110,70,110.8,94.1h-5.3
		c-0.8,0-1.5,0.7-1.5,1.5s0.7,1.5,1.5,1.5h5.3C110.2,121.3,90.8,140.8,66.7,141.7z"/>
	<path class="st1" d="M129,95.2L123,82c-0.2-0.5-0.8-0.9-1.4-0.9c-0.2,0-0.4,0-0.6,0.1c-0.4,0.2-0.6,0.5-0.8,0.8
		c-0.1,0.4-0.1,0.8,0,1.1l5.7,12.5l-5.7,12.5c-0.2,0.4-0.2,0.8,0,1.1c0.1,0.4,0.4,0.7,0.8,0.8c0.2,0.1,0.4,0.1,0.6,0.1
		c0.6,0,1.1-0.3,1.4-0.9l6-13.2C129.2,96,129.2,95.6,129,95.2z"/>
	<path class="st1" d="M51.9,40.6c0.2,0,0.4,0,0.6-0.1L65,34.8l12.5,5.7c0.2,0.1,0.4,0.1,0.6,0.1c0.6,0,1.1-0.3,1.4-0.9
		c0.3-0.8,0-1.6-0.7-2l-13.1-6c-0.2-0.1-0.4-0.1-0.6-0.1s-0.4,0-0.6,0.1l-13.1,6c-0.8,0.3-1.1,1.2-0.7,2
		C50.7,40.3,51.3,40.6,51.9,40.6z"/>
	<path class="st1" d="M9.8,82.1c-0.1-0.4-0.4-0.7-0.8-0.8c-0.2-0.1-0.4-0.1-0.6-0.1c-0.6,0-1.1,0.3-1.4,0.9L1,95.2
		c-0.2,0.4-0.2,0.9,0,1.2l6,13.2c0.2,0.5,0.8,0.9,1.4,0.9c0.2,0,0.4,0,0.6-0.1c0.4-0.2,0.6-0.5,0.8-0.8c0.1-0.4,0.1-0.8,0-1.1
		L4,95.8l5.7-12.5C9.9,82.9,9.9,82.5,9.8,82.1z"/>
	<path class="st1" d="M78.1,151c-0.2,0-0.4,0-0.6,0.1L65,156.8l-12.5-5.7c-0.2-0.1-0.4-0.1-0.6-0.1c-0.6,0-1.1,0.3-1.4,0.9
		c-0.3,0.8,0,1.6,0.7,2l13.1,6c0.2,0.1,0.4,0.1,0.6,0.1s0.4,0,0.6-0.1l13.1-6c0.8-0.3,1.1-1.2,0.7-2C79.3,151.3,78.7,151,78.1,151z"
		/>
</g>
</svg>
