<?xml version="1.0" encoding="utf-8"?>
<!-- Generator: Adobe Illustrator 21.0.0, SVG Export Plug-In . SVG Version: 6.00 Build 0)  -->
<svg version="1.1" id="Layer_1" xmlns="http://www.w3.org/2000/svg" xmlns:xlink="http://www.w3.org/1999/xlink" x="0px" y="0px"
	 viewBox="0 0 36 24" style="enable-background:new 0 0 36 24;" xml:space="preserve">
<style type="text/css">
	.st0{clip-path:url(#SVGID_2_);}
	.st1{clip-path:url(#SVGID_4_);}
	.st2{clip-path:url(#SVGID_6_);}
	.st3{clip-path:url(#SVGID_8_);}
	.st4{clip-path:url(#SVGID_12_);}
	.st5{fill:#EE3C3A;}
	.st6{clip-path:url(#SVGID_14_);}
	.st7{clip-path:url(#SVGID_18_);}
	.st8{clip-path:url(#SVGID_22_);}
	.st9{clip-path:url(#SVGID_24_);}
	.st10{clip-path:url(#SVGID_28_);}
	.st11{clip-path:url(#SVGID_30_);}
	.st12{clip-path:url(#SVGID_34_);}
	.st13{fill:none;}
	.st14{fill-rule:evenodd;clip-rule:evenodd;fill:none;}
	.st15{clip-path:url(#SVGID_46_);}
	.st16{clip-path:url(#SVGID_48_);}
	.st17{clip-path:url(#SVGID_52_);}
	.st18{clip-path:url(#SVGID_54_);}
	.st19{clip-path:url(#SVGID_56_);fill:#EE3A39;}
	.st20{clip-path:url(#SVGID_58_);}
	.st21{clip-path:url(#SVGID_60_);fill:#EE3A39;}
	.st22{clip-path:url(#SVGID_62_);}
	.st23{clip-path:url(#SVGID_64_);fill:#EE3A39;}
	.st24{clip-path:url(#SVGID_66_);}
	.st25{clip-path:url(#SVGID_68_);fill:#EE3A39;}
	.st26{clip-path:url(#SVGID_70_);}
	.st27{clip-path:url(#SVGID_72_);fill:#EE3A39;}
	.st28{clip-path:url(#SVGID_74_);}
	.st29{clip-path:url(#SVGID_76_);fill:#EE3A39;}
	.st30{clip-path:url(#SVGID_78_);}
	.st31{clip-path:url(#SVGID_82_);}
	.st32{clip-path:url(#SVGID_86_);}
	.st33{clip-path:url(#SVGID_90_);}
	.st34{clip-path:url(#SVGID_94_);}
	.st35{clip-path:url(#SVGID_98_);}
	.st36{clip-path:url(#SVGID_102_);}
	.st37{clip-path:url(#SVGID_106_);}
	.st38{clip-path:url(#SVGID_110_);}
	.st39{clip-path:url(#SVGID_114_);}
	.st40{clip-path:url(#SVGID_118_);}
	.st41{clip-path:url(#SVGID_122_);}
	.st42{clip-path:url(#SVGID_126_);}
	.st43{clip-path:url(#SVGID_130_);}
	.st44{clip-path:url(#SVGID_134_);}
	.st45{clip-path:url(#SVGID_138_);}
	.st46{clip-path:url(#SVGID_142_);}
	.st47{clip-path:url(#SVGID_146_);}
	.st48{clip-path:url(#SVGID_150_);}
	.st49{clip-path:url(#SVGID_154_);}
	.st50{clip-path:url(#SVGID_158_);}
	.st51{fill-rule:evenodd;clip-rule:evenodd;fill:#EE3C3A;}
	.st52{fill:none;stroke:#EE3A39;stroke-linecap:round;stroke-linejoin:round;stroke-miterlimit:10;}
	.st53{fill:#EE3A39;}
</style>
<path class="st53" d="M36,0.4c0,0,0-0.1,0-0.1c0,0,0-0.1-0.1-0.1c0,0,0,0,0-0.1c0,0,0,0,0,0C35.8,0.1,35.7,0,35.6,0c0,0,0,0-0.1,0
	c0,0,0,0,0,0h-35c0,0,0,0,0,0c0,0-0.1,0-0.1,0C0.3,0,0.2,0.1,0.1,0.1c0,0,0,0,0,0c0,0,0,0.1-0.1,0.1c0,0,0,0-0.1,0.1
	c0,0.1,0,0.1,0,0.2c0,0,0,0,0,0v0c0,0,0,0,0,0v23c0,0,0,0,0,0v0c0,0,0,0,0,0c0,0,0,0.1,0,0.1c0,0,0,0.1,0,0.1c0,0,0,0.1,0,0.1
	c0,0,0,0,0,0c0,0,0.1,0.1,0.1,0.1C0.3,24,0.4,24,0.5,24c0,0,0,0,0,0s0,0,0,0h35c0.1,0,0.1,0,0.2,0c0.1,0,0.1-0.1,0.2-0.1
	c0,0,0,0,0,0c0,0,0,0,0-0.1c0,0,0-0.1,0.1-0.1c0,0,0-0.1,0-0.1c0,0,0,0,0-0.1L36,0.4C36,0.5,36,0.5,36,0.4z M35,22.3L24.2,12.1
	L35,1.7V22.3z M18,16.7L1.7,1h32.5L18,16.7z M11.8,12.1L1,22.3V1.7L11.8,12.1z M12.5,12.8l5.1,4.9c0.1,0.1,0.2,0.1,0.3,0.1
	s0.2,0,0.3-0.1l5.1-4.9L34.2,23H1.8L12.5,12.8z"/>
</svg>
