<?xml version="1.0" encoding="utf-8"?>
<!-- Generator: Adobe Illustrator 21.0.0, SVG Export Plug-In . SVG Version: 6.00 Build 0)  -->
<svg version="1.1" id="Layer_1" xmlns="http://www.w3.org/2000/svg" xmlns:xlink="http://www.w3.org/1999/xlink" x="0px" y="0px"
	 viewBox="0 0 130 160" style="enable-background:new 0 0 130 160;" xml:space="preserve">
<style type="text/css">
	.st0{fill:#172442;}
</style>
<g>
	<g>
		<path class="st0" d="M94.2,105H89c-2.5,0-4.5-2-4.5-4.5V97c-3.1-0.7-5.9-1.9-8.6-3.5L73.4,96c-1.8,1.8-4.7,1.8-6.4,0l-3.6-3.6
			c-0.9-0.9-1.3-2-1.3-3.2s0.5-2.4,1.3-3.2l2.5-2.5c-1.6-2.7-2.8-5.6-3.6-8.6h-3.5c-2.5,0-4.5-2-4.5-4.5v-5.1c0-2.5,2-4.5,4.5-4.5
			h3.5c0.7-3.1,1.9-5.9,3.5-8.6l-2.5-2.5c-0.9-0.9-1.3-2-1.3-3.2s0.5-2.4,1.3-3.2l3.6-3.6c1.8-1.8,4.7-1.8,6.4,0l2.5,2.5
			c2.7-1.6,5.6-2.8,8.6-3.5V35c0-2.5,2-4.5,4.5-4.5H94c2.5,0,4.5,2,4.5,4.5v3.5c3.1,0.7,5.9,1.9,8.6,3.5l2.5-2.5
			c1.8-1.8,4.7-1.8,6.4,0l3.6,3.6c0.9,0.9,1.3,2,1.3,3.2s-0.5,2.4-1.3,3.2l-2.5,2.5c1.6,2.7,2.8,5.6,3.6,8.6h3.5
			c2.5,0,4.5,2,4.5,4.5v5.1c0,2.5-2,4.5-4.5,4.5h-3.5c-0.7,3-1.9,5.9-3.5,8.6l2.5,2.5c0.9,0.9,1.3,2,1.3,3.2s-0.5,2.4-1.3,3.2
			l-3.6,3.6c-1.8,1.8-4.7,1.8-6.4,0l-2.5-2.5c-2.7,1.6-5.6,2.8-8.6,3.5v3.5C98.7,103,96.7,105,94.2,105z M75.7,90
			c0.3,0,0.6,0.1,0.8,0.3c2.9,2,6.2,3.3,9.7,4c0.7,0.1,1.2,0.8,1.2,1.5v4.7c0,0.8,0.7,1.5,1.5,1.5H94c0.8,0,1.5-0.7,1.5-1.5v-4.7
			c0-0.7,0.5-1.3,1.2-1.5c3.5-0.7,6.7-2,9.7-4c0.6-0.4,1.4-0.3,1.9,0.2l3.3,3.3c0.6,0.6,1.6,0.6,2.2,0l3.6-3.6
			c0.3-0.3,0.5-0.7,0.5-1.1s-0.2-0.8-0.5-1.1l-3.3-3.3c-0.5-0.5-0.6-1.3-0.2-1.9c2-2.9,3.3-6.2,4-9.7c0.1-0.7,0.8-1.2,1.5-1.2h4.7
			c0.8,0,1.5-0.7,1.5-1.5v-5.1c0-0.8-0.7-1.5-1.5-1.5h-4.7c-0.7,0-1.3-0.5-1.5-1.2c-0.7-3.5-2-6.7-4-9.7c-0.4-0.6-0.3-1.4,0.2-1.9
			l3.3-3.3c0.3-0.3,0.5-0.7,0.5-1.1c0-0.4-0.2-0.8-0.5-1.1l-3.6-3.6c-0.6-0.6-1.6-0.6-2.2,0l-3.3,3.3c-0.5,0.5-1.3,0.6-1.9,0.2
			c-2.9-2-6.2-3.3-9.7-4c-0.7-0.1-1.2-0.8-1.2-1.5V35c0-0.8-0.7-1.5-1.5-1.5h-5c-0.8,0-1.5,0.7-1.5,1.5v4.7c0,0.7-0.5,1.3-1.2,1.5
			c-3.5,0.7-6.7,2-9.7,4c-0.6,0.4-1.4,0.3-1.9-0.2l-3.3-3.3c-0.6-0.6-1.6-0.6-2.2,0l-3.6,3.6C65.2,45.6,65,46,65,46.4
			s0.2,0.8,0.5,1.1l3.3,3.3c0.5,0.5,0.6,1.3,0.2,1.9c-2,2.9-3.3,6.2-4,9.7c-0.1,0.7-0.8,1.2-1.5,1.2h-4.7c-0.8,0-1.5,0.7-1.5,1.5
			v5.1c0,0.8,0.7,1.5,1.5,1.5h4.7c0.7,0,1.3,0.5,1.5,1.2c0.7,3.4,2,6.7,4,9.7c0.4,0.6,0.3,1.4-0.2,1.9L65.5,88
			c-0.3,0.3-0.5,0.7-0.5,1.1s0.2,0.8,0.5,1.1l3.6,3.6c0.6,0.6,1.6,0.6,2.2,0l3.3-3.3C74.9,90.2,75.3,90,75.7,90z M91.6,82.2
			c-8,0-14.5-6.5-14.5-14.5s6.5-14.5,14.5-14.5s14.5,6.5,14.5,14.5C106,75.7,99.5,82.2,91.6,82.2z M91.6,56.3
			c-6.3,0-11.5,5.1-11.5,11.5c0,6.3,5.2,11.5,11.5,11.5s11.5-5.1,11.5-11.5C103,61.4,97.9,56.3,91.6,56.3z"/>
	</g>
	<g>
		<path class="st0" d="M35.8,160c-0.7,0-1.5-0.1-2.2-0.4l-6.5-2.7c-2.9-1.2-4.3-4.5-3.1-7.4l2-4.9c-3.7-2.7-6.9-5.9-9.5-9.5l-4.9,2
			c-2.9,1.2-6.2-0.2-7.4-3.1l-2.7-6.5c-0.6-1.4-0.6-2.9,0-4.3s1.7-2.5,3.1-3.1l4.9-2c-0.8-4.5-0.8-9,0-13.5l-4.9-2
			c-2.9-1.2-4.3-4.5-3.1-7.4l2.7-6.5c1.2-2.9,4.5-4.3,7.4-3.1l4.9,2c2.7-3.7,5.9-6.9,9.5-9.5l-2-4.9c-0.6-1.4-0.6-3,0-4.4
			s1.7-2.5,3.1-3l6.5-2.7c2.9-1.2,6.2,0.2,7.4,3.1l2.5,6c0.3,0.8,0,1.6-0.8,2c-0.8,0.3-1.6,0-2-0.8l-2.5-6c-0.6-1.4-2.1-2-3.5-1.5
			l-6.5,2.7c-0.7,0.3-1.2,0.8-1.4,1.4c-0.3,0.7-0.3,1.4,0,2.1l2.5,6c0.3,0.7,0,1.4-0.6,1.8c-4.1,2.7-7.6,6.2-10.4,10.4
			c-0.4,0.6-1.2,0.8-1.8,0.5l-6-2.5c-1.4-0.6-3,0.1-3.5,1.5l-2.7,6.5c-0.6,1.4,0.1,2.9,1.5,3.5l6,2.5c0.7,0.3,1,1,0.9,1.7
			c-1,4.8-1,9.8,0,14.7c0.1,0.7-0.2,1.4-0.9,1.7l-6,2.5c-0.7,0.3-1.2,0.8-1.5,1.5s-0.3,1.4,0,2l2.7,6.5c0.6,1.4,2.1,2,3.5,1.5l6-2.5
			c0.7-0.3,1.4,0,1.8,0.6c2.7,4.1,6.2,7.6,10.4,10.4c0.6,0.4,0.8,1.2,0.5,1.8l-2.5,6c-0.6,1.4,0.1,2.9,1.5,3.5l6.5,2.7
			c0.7,0.3,1.4,0.3,2.1,0c0.7-0.3,1.2-0.8,1.5-1.5l2.5-6c0.3-0.7,1-1,1.7-0.9c4.9,1,9.8,1,14.7,0c0.7-0.1,1.4,0.2,1.7,0.9l2.5,6
			c0.6,1.4,2.1,2,3.5,1.5l6.5-2.7c0.7-0.3,1.2-0.8,1.5-1.5s0.3-1.4,0-2l-2.5-6c-0.3-0.7,0-1.4,0.6-1.8c4.1-2.7,7.6-6.2,10.4-10.4
			c0.4-0.6,1.2-0.8,1.8-0.5l6,2.5c1.4,0.6,3-0.1,3.5-1.5l2.7-6.5c0.3-0.7,0.3-1.4,0-2.1s-0.8-1.2-1.5-1.5l-6-2.5
			c-0.8-0.3-1.1-1.2-0.8-2c0.3-0.8,1.2-1.1,2-0.8l6,2.5c1.4,0.6,2.5,1.7,3.1,3.1s0.6,3,0,4.4l-2.7,6.5c-1.2,2.9-4.5,4.3-7.4,3.1
			l-4.9-2c-2.7,3.7-5.9,6.9-9.5,9.5l2,4.9c0.6,1.4,0.6,2.9,0,4.3c-0.6,1.4-1.7,2.5-3.1,3.1l-6.5,2.7c-2.9,1.2-6.2-0.2-7.4-3.1
			l-2-4.9c-4.5,0.8-9,0.8-13.5,0l-2,4.9c-0.6,1.4-1.7,2.5-3.1,3.1C37.3,159.9,36.5,160,35.8,160z M49.7,131.1
			c-2.5,0-5.1-0.5-7.6-1.5c-4.9-2-8.7-5.8-10.7-10.7c-2-4.9-2-10.3,0-15.2c3.1-7.4,10.2-12.2,18.2-12.2l0,0c0.8,0,1.5,0.7,1.5,1.5
			s-0.7,1.5-1.5,1.5c-6.8,0.1-12.8,4.1-15.4,10.4c-1.7,4.1-1.7,8.7,0,12.9c1.7,4.2,5,7.4,9.1,9.1c8.6,3.6,18.4-0.5,22-9.1
			c0.9-2.1,1.3-4.3,1.3-6.5c0-0.8,0.7-1.5,1.5-1.5s1.5,0.7,1.5,1.5c0,2.7-0.5,5.2-1.5,7.7C64.9,126.5,57.5,131.1,49.7,131.1z"/>
	</g>
</g>
</svg>
