<?xml version="1.0" encoding="utf-8"?>
<!-- Generator: Adobe Illustrator 21.0.0, SVG Export Plug-In . SVG Version: 6.00 Build 0)  -->
<svg version="1.1" id="Layer_1" xmlns="http://www.w3.org/2000/svg" xmlns:xlink="http://www.w3.org/1999/xlink" x="0px" y="0px"
	 viewBox="0 0 130 160" style="enable-background:new 0 0 130 160;" xml:space="preserve">
<style type="text/css">
	.st0{clip-path:url(#SVGID_2_);}
	.st1{clip-path:url(#SVGID_4_);}
	.st2{clip-path:url(#SVGID_6_);}
	.st3{clip-path:url(#SVGID_8_);}
	.st4{clip-path:url(#SVGID_12_);}
	.st5{fill:#EE3C3A;}
	.st6{clip-path:url(#SVGID_14_);}
	.st7{clip-path:url(#SVGID_18_);}
	.st8{clip-path:url(#SVGID_22_);}
	.st9{clip-path:url(#SVGID_24_);}
	.st10{clip-path:url(#SVGID_28_);}
	.st11{clip-path:url(#SVGID_30_);}
	.st12{clip-path:url(#SVGID_34_);}
	.st13{fill:none;}
	.st14{fill-rule:evenodd;clip-rule:evenodd;fill:none;}
	.st15{clip-path:url(#SVGID_46_);}
	.st16{clip-path:url(#SVGID_48_);}
	.st17{clip-path:url(#SVGID_52_);}
	.st18{clip-path:url(#SVGID_54_);}
	.st19{clip-path:url(#SVGID_56_);fill:#EE3A39;}
	.st20{clip-path:url(#SVGID_58_);}
	.st21{clip-path:url(#SVGID_60_);fill:#EE3A39;}
	.st22{clip-path:url(#SVGID_62_);}
	.st23{clip-path:url(#SVGID_64_);fill:#EE3A39;}
	.st24{clip-path:url(#SVGID_66_);}
	.st25{clip-path:url(#SVGID_68_);fill:#EE3A39;}
	.st26{clip-path:url(#SVGID_70_);}
	.st27{clip-path:url(#SVGID_72_);fill:#EE3A39;}
	.st28{clip-path:url(#SVGID_74_);}
	.st29{clip-path:url(#SVGID_76_);fill:#EE3A39;}
	.st30{clip-path:url(#SVGID_78_);}
	.st31{clip-path:url(#SVGID_82_);}
	.st32{clip-path:url(#SVGID_86_);}
	.st33{clip-path:url(#SVGID_90_);}
	.st34{clip-path:url(#SVGID_94_);}
	.st35{clip-path:url(#SVGID_98_);}
	.st36{clip-path:url(#SVGID_102_);}
	.st37{clip-path:url(#SVGID_106_);}
	.st38{clip-path:url(#SVGID_110_);}
	.st39{clip-path:url(#SVGID_114_);}
	.st40{clip-path:url(#SVGID_118_);}
	.st41{clip-path:url(#SVGID_122_);}
	.st42{clip-path:url(#SVGID_126_);}
	.st43{clip-path:url(#SVGID_130_);}
	.st44{clip-path:url(#SVGID_134_);}
	.st45{clip-path:url(#SVGID_138_);}
	.st46{clip-path:url(#SVGID_142_);}
	.st47{clip-path:url(#SVGID_146_);}
	.st48{clip-path:url(#SVGID_150_);}
	.st49{clip-path:url(#SVGID_154_);}
	.st50{clip-path:url(#SVGID_158_);}
</style>
<g>
	<g>
		<path class="st5" d="M100.8,155.9H73.6c-0.8,0-1.5-0.7-1.5-1.5s0.7-1.5,1.5-1.5h27.2c10,0,18.1-4.1,22.3-11.3
			c4.2-7.2,3.7-16.3-1.3-25L108.9,94c-0.4-0.7-0.2-1.6,0.6-2c0.7-0.4,1.6-0.2,2,0.6l12.9,22.5c5.5,9.6,6,19.8,1.3,28
			C121,151.2,111.9,155.9,100.8,155.9z"/>
	</g>
	<g>
		<path class="st5" d="M97,130.1H73.6c-0.8,0-1.5-0.7-1.5-1.5s0.7-1.5,1.5-1.5H97c0.2,0,0.5-0.1,0.8-0.1c-0.1-0.3-0.2-0.6-0.3-0.8
			l-11-19.2c-0.4-0.7-0.2-1.6,0.6-2c0.7-0.4,1.6-0.2,2,0.6l11,19.2c0,0,1.4,2.5,0.5,3.9C99.9,130,97,130.1,97,130.1z M98,127.5
			L98,127.5L98,127.5z M98.4,126.8L98.4,126.8L98.4,126.8z"/>
	</g>
	<g>
		<path class="st5" d="M83,107.4c-0.2,0-0.3,0-0.5-0.1c-0.8-0.3-1.2-1.1-1-1.9l7-21.8c0.2-0.7,1-1.2,1.7-1l22.4,4.8
			c0.8,0.2,1.3,1,1.2,1.8c-0.2,0.8-1,1.3-1.8,1.2L91,85.8l-6.6,20.5C84.2,107,83.6,107.4,83,107.4z"/>
	</g>
	<g>
		<path class="st5" d="M100.5,78.5c-0.5,0-1-0.3-1.3-0.8L85.6,54.3c-5-8.7-12.6-13.6-21-13.6c0,0,0,0,0,0c-8.3,0-16,5-21,13.6
			l-13,22.5c-0.4,0.7-1.3,1-2.1,0.5c-0.7-0.4-1-1.3-0.5-2.1l13-22.5c5.6-9.6,14.2-15.1,23.6-15.1c0,0,0,0,0,0
			c9.4,0,18,5.5,23.6,15.1l13.6,23.5c0.4,0.7,0.2,1.6-0.5,2C101,78.5,100.8,78.5,100.5,78.5z"/>
	</g>
	<g>
		<path class="st5" d="M78.2,91.4c-0.5,0-1-0.3-1.3-0.8L65.1,70.4c-0.1-0.1-0.3-0.4-0.5-0.7c-0.2,0.2-0.4,0.5-0.5,0.7L53,89.5
			c-0.4,0.7-1.3,1-2.1,0.5c-0.7-0.4-1-1.3-0.5-2.1l11.1-19.1c0,0,1.5-2.4,3.1-2.4c1.6,0,3.1,2.4,3.1,2.5l11.7,20.3
			c0.4,0.7,0.2,1.6-0.5,2C78.7,91.4,78.4,91.4,78.2,91.4z M65,69.4L65,69.4z"/>
	</g>
	<g>
		<path class="st5" d="M31.4,99.5c-0.6,0-1.2-0.4-1.4-1l-7-21.8c-0.3-0.8,0.2-1.6,1-1.9c0.8-0.3,1.6,0.2,1.9,1l6.6,20.5l21.1-4.5
			c0.8-0.2,1.6,0.3,1.8,1.2c0.2,0.8-0.3,1.6-1.2,1.8l-22.4,4.8C31.6,99.5,31.5,99.5,31.4,99.5z"/>
	</g>
	<g>
		<path class="st5" d="M55.1,155.9C55.1,155.9,55.1,155.9,55.1,155.9l-26,0c-11.1,0-20.2-4.7-24.9-12.9c-4.7-8.2-4.2-18.4,1.3-28
			l13.6-23.5c0.4-0.7,1.3-1,2-0.5c0.7,0.4,1,1.3,0.5,2L8.2,116.5c-5,8.7-5.5,17.8-1.3,25c4.2,7.2,12.3,11.4,22.3,11.4l26,0
			c0.8,0,1.5,0.7,1.5,1.5C56.6,155.2,56,155.9,55.1,155.9z"/>
	</g>
	<g>
		<path class="st5" d="M55.1,130.1C55.1,130.1,55.1,130.1,55.1,130.1L33,130c0,0-2.8-0.1-3.7-1.5c-0.8-1.4,0.5-3.9,0.6-3.9
			l11.7-20.3c0.4-0.7,1.3-1,2-0.5c0.7,0.4,1,1.3,0.5,2l-11.7,20.3c-0.1,0.1-0.2,0.5-0.3,0.8c0.3,0.1,0.7,0.1,0.8,0.1l22.1,0
			c0.8,0,1.5,0.7,1.5,1.5C56.6,129.4,55.9,130.1,55.1,130.1z M31.6,126.7L31.6,126.7z"/>
	</g>
	<g>
		<path class="st5" d="M57.8,160c-0.4,0-0.7-0.1-1-0.4c-0.6-0.6-0.7-1.5-0.1-2.1l14.5-16l-14.5-16c-0.6-0.6-0.5-1.6,0.1-2.1
			c0.6-0.6,1.6-0.5,2.1,0.1l15.4,17c0.5,0.6,0.5,1.4,0,2l-15.4,17C58.6,159.8,58.2,160,57.8,160z"/>
	</g>
</g>
</svg>
