<?xml version="1.0" encoding="utf-8"?>
<!-- Generator: Adobe Illustrator 21.0.0, SVG Export Plug-In . SVG Version: 6.00 Build 0)  -->
<svg version="1.1" id="Layer_1" xmlns="http://www.w3.org/2000/svg" xmlns:xlink="http://www.w3.org/1999/xlink" x="0px" y="0px"
	 viewBox="0 0 477.7 162.5" style="enable-background:new 0 0 477.7 162.5;" xml:space="preserve">
<style type="text/css">
	.st0{fill:#343333;}
	.st1{fill:#EF3B39;}
	.st2{fill:#333333;}
</style>
<rect x="173.1" y="149.3" class="st1" width="304.6" height="13.1"/>
<rect x="125.7" y="149.3" class="st1" width="37.2" height="13.1"/>
<rect x="87.5" y="149.3" class="st1" width="24" height="13.1"/>
<rect x="50.5" y="149.3" class="st1" width="22.4" height="13.1"/>
<rect x="25.1" y="149.3" class="st1" width="11.9" height="13.1"/>
<rect x="0" y="149.3" class="st1" width="7.6" height="13.1"/>
<path class="st2" d="M143.7,132.7V21c0-0.3-0.3-0.6-0.6-0.6h-21.3c-0.3,0-0.6,0.3-0.6,0.6v45.6c0,0.6-0.8,0.8-1.1,0.2L98.5,20.4
	H75.9v112.4c0,0.3,0.3,0.6,0.6,0.6h21.3c0.3,0,0.6-0.3,0.6-0.6V73.4c0-0.6,0.8-0.8,1.1-0.2l21.5,46.4v13.1c0,0.3,0.3,0.6,0.6,0.6
	h21.3C143.5,133.4,143.7,133.1,143.7,132.7z"/>
<path class="st2" d="M410.5,133.4h21.3c0.3,0,0.6-0.3,0.6-0.6V73.4c0-0.6,0.8-0.8,1.1-0.2l21.5,46.4v13.1c0,0.3,0.3,0.6,0.6,0.6
	h21.3c0.3,0,0.6-0.3,0.6-0.6V21c0-0.3-0.3-0.6-0.6-0.6h-21.3c-0.3,0-0.6,0.3-0.6,0.6v45.6c0,0.6-0.8,0.8-1.1,0.2l-21.5-46.5h-22.6
	v112.4C409.9,133.1,410.2,133.4,410.5,133.4z"/>
<path class="st2" d="M152.5,133.4h21.3c0.3,0,0.6-0.3,0.6-0.6V21c0-0.3-0.3-0.6-0.6-0.6h-21.3c-0.3,0-0.6,0.3-0.6,0.6v111.8
	C151.8,133.1,152.1,133.4,152.5,133.4z"/>
<path class="st2" d="M67.8,112V21c0-0.3-0.3-0.6-0.6-0.6H45.9c-0.3,0-0.6,0.3-0.6,0.6v84.7c0,2.8-2.3,5.1-5.1,5.1H27.7
	c-2.8,0-5.1-2.3-5.1-5.1V21c0-0.3-0.3-0.6-0.6-0.6H0.6C0.3,20.4,0,20.6,0,21v91c0,11.8,9.6,21.4,21.4,21.4h25
	C58.3,133.4,67.8,123.8,67.8,112z"/>
<path class="st2" d="M203.8,133.4h25c11.8,0,21.4-9.6,21.4-21.4V88.8c0-0.3-0.3-0.6-0.6-0.6h-21.3c-0.3,0-0.6,0.3-0.6,0.6v16.9
	c0,2.8-2.3,5.1-5.1,5.1h-12.4c-2.8,0-5.1-2.3-5.1-5.1V48.1c0-2.8,2.3-5.1,5.1-5.1h12.4c2.8,0,5.1,2.3,5.1,5.1v16.9
	c0,0.3,0.3,0.6,0.6,0.6h21.3c0.3,0,0.6-0.3,0.6-0.6V41.8c0-11.8-9.6-21.4-21.4-21.4h-25c-11.8,0-21.4,9.6-21.4,21.4V112
	C182.4,123.8,192,133.4,203.8,133.4z"/>
<path class="st2" d="M279.7,133.4h25c11.8,0,21.4-9.6,21.4-21.4V41.8c0-11.8-9.6-21.4-21.4-21.4h-25c-11.8,0-21.4,9.6-21.4,21.4V112
	C258.3,123.8,267.9,133.4,279.7,133.4z M281,48.1c0-2.8,2.3-5.1,5.1-5.1h12.4c2.8,0,5.1,2.3,5.1,5.1v57.6c0,2.8-2.3,5.1-5.1,5.1
	h-12.4c-2.8,0-5.1-2.3-5.1-5.1V48.1z"/>
<path class="st2" d="M334.9,43h39.5c2.8,0,5.1,2.3,5.1,5.1v12.4c0,2.8-2.3,5.1-5.1,5.1h-39.2c-0.5,0-0.8,0.5-0.7,0.9l22.2,66.5
	c0.1,0.3,0.3,0.4,0.6,0.4h21.3c0.4,0,0.7-0.4,0.6-0.8l-14.8-44.4l16.3,0c11.8,0,21.4-9.6,21.4-21.4v-25c0-1.2-0.1-2.3-0.3-3.5
	L409.5,0l-25.7,20.6c-1-0.1-2-0.2-3-0.2h-45.8c-0.3,0-0.6,0.3-0.6,0.6v21.3C334.3,42.7,334.6,43,334.9,43z"/>
</svg>
