<?xml version="1.0" encoding="utf-8"?>
<!-- Generator: Adobe Illustrator 21.0.0, SVG Export Plug-In . SVG Version: 6.00 Build 0)  -->
<svg version="1.1" id="Layer_1" xmlns="http://www.w3.org/2000/svg" xmlns:xlink="http://www.w3.org/1999/xlink" x="0px" y="0px"
	 viewBox="0 0 477.7 200" style="enable-background:new 0 0 477.7 200;" xml:space="preserve">
<style type="text/css">
	.st0{fill:#343333;}
	.st1{fill:#EF3B39;}
	.st2{fill:#FFFFFF;}
	.st3{fill:#333333;}
</style>
<text transform="matrix(1 0 0 1 1.751709e-02 -351.0314)" style="fill:#F7EC13; font-family:'Moderan'; font-size:161.4252px;">UNICORN</text>
<g>
</g>
<rect x="0" y="-630.4" class="st0" width="22.6" height="113"/>
<rect x="45.3" y="-630.4" class="st0" width="22.6" height="113"/>
<polygon class="st0" points="143.7,-517.4 127.2,-517.4 75.9,-630.4 98.5,-630.4 143.7,-532.6 "/>
<rect x="121.1" y="-630.4" class="st0" width="22.6" height="113"/>
<rect x="75.9" y="-630.4" class="st0" width="22.6" height="113"/>
<polygon class="st0" points="478.1,-517.4 461.5,-517.4 410.2,-630.4 432.9,-630.4 478.1,-532.6 "/>
<rect x="455.5" y="-630.4" class="st0" width="22.6" height="113"/>
<rect x="410.2" y="-630.4" class="st0" width="22.6" height="113"/>
<rect x="151.7" y="-630.4" class="st0" width="22.6" height="113"/>
<rect x="182.2" y="-630.4" class="st0" width="22.6" height="113"/>
<rect x="258.3" y="-630.4" class="st0" width="22.6" height="113"/>
<rect x="227.6" y="-630.4" class="st0" width="22.6" height="45.2"/>
<rect x="379.5" y="-630.4" class="st0" width="22.6" height="67.9"/>
<polygon class="st0" points="379.5,-517.4 356.9,-517.4 334.3,-585.2 356.9,-585.2 "/>
<rect x="227.6" y="-562.6" class="st0" width="22.6" height="45.2"/>
<rect x="303.6" y="-630.4" class="st0" width="22.6" height="113"/>
<rect x="0" y="-540" class="st0" width="68" height="22.6"/>
<rect x="334.3" y="-630.4" class="st0" width="67.8" height="22.6"/>
<rect x="182.4" y="-630.4" class="st0" width="67.8" height="22.6"/>
<rect x="182.4" y="-540" class="st0" width="67.8" height="22.6"/>
<rect x="258" y="-630.4" class="st0" width="67.8" height="22.6"/>
<rect x="258" y="-540" class="st0" width="67.8" height="22.6"/>
<rect x="334.3" y="-585.2" class="st0" width="67.8" height="22.6"/>
<rect x="173.1" y="149.3" class="st1" width="304.6" height="13.1"/>
<rect x="125.7" y="149.3" class="st1" width="37.2" height="13.1"/>
<rect x="87.5" y="149.3" class="st1" width="24" height="13.1"/>
<rect x="50.5" y="149.3" class="st1" width="22.4" height="13.1"/>
<rect x="25.1" y="149.3" class="st1" width="11.9" height="13.1"/>
<rect x="0" y="149.3" class="st1" width="7.6" height="13.1"/>
<path class="st2" d="M143.7,132.7V21c0-0.3-0.3-0.6-0.6-0.6h-21.3c-0.3,0-0.6,0.3-0.6,0.6v45.6c0,0.6-0.8,0.8-1.1,0.2L98.5,20.4
	H75.9v112.4c0,0.3,0.3,0.6,0.6,0.6h21.3c0.3,0,0.6-0.3,0.6-0.6V73.4c0-0.6,0.8-0.8,1.1-0.2l21.5,46.4v13.1c0,0.3,0.3,0.6,0.6,0.6
	h21.3C143.5,133.4,143.7,133.1,143.7,132.7z"/>
<path class="st2" d="M410.5,133.4h21.3c0.3,0,0.6-0.3,0.6-0.6V73.4c0-0.6,0.8-0.8,1.1-0.2l21.5,46.4v13.1c0,0.3,0.3,0.6,0.6,0.6
	h21.3c0.3,0,0.6-0.3,0.6-0.6V21c0-0.3-0.3-0.6-0.6-0.6h-21.3c-0.3,0-0.6,0.3-0.6,0.6v45.6c0,0.6-0.8,0.8-1.1,0.2l-21.5-46.5h-22.6
	v112.4C409.9,133.1,410.2,133.4,410.5,133.4z"/>
<path class="st2" d="M152.5,133.4h21.3c0.3,0,0.6-0.3,0.6-0.6V21c0-0.3-0.3-0.6-0.6-0.6h-21.3c-0.3,0-0.6,0.3-0.6,0.6v111.8
	C151.8,133.1,152.1,133.4,152.5,133.4z"/>
<path class="st2" d="M67.8,112V21c0-0.3-0.3-0.6-0.6-0.6H45.9c-0.3,0-0.6,0.3-0.6,0.6v84.7c0,2.8-2.3,5.1-5.1,5.1H27.7
	c-2.8,0-5.1-2.3-5.1-5.1V21c0-0.3-0.3-0.6-0.6-0.6H0.6C0.3,20.4,0,20.6,0,21v91c0,11.8,9.6,21.4,21.4,21.4h25
	C58.3,133.4,67.8,123.8,67.8,112z"/>
<path class="st2" d="M203.8,133.4h25c11.8,0,21.4-9.6,21.4-21.4V88.8c0-0.3-0.3-0.6-0.6-0.6h-21.3c-0.3,0-0.6,0.3-0.6,0.6v16.9
	c0,2.8-2.3,5.1-5.1,5.1h-12.4c-2.8,0-5.1-2.3-5.1-5.1V48.1c0-2.8,2.3-5.1,5.1-5.1h12.4c2.8,0,5.1,2.3,5.1,5.1v16.9
	c0,0.3,0.3,0.6,0.6,0.6h21.3c0.3,0,0.6-0.3,0.6-0.6V41.8c0-11.8-9.6-21.4-21.4-21.4h-25c-11.8,0-21.4,9.6-21.4,21.4V112
	C182.4,123.8,192,133.4,203.8,133.4z"/>
<path class="st2" d="M279.7,133.4h25c11.8,0,21.4-9.6,21.4-21.4V41.8c0-11.8-9.6-21.4-21.4-21.4h-25c-11.8,0-21.4,9.6-21.4,21.4V112
	C258.3,123.8,267.9,133.4,279.7,133.4z M281,48.1c0-2.8,2.3-5.1,5.1-5.1h12.4c2.8,0,5.1,2.3,5.1,5.1v57.6c0,2.8-2.3,5.1-5.1,5.1
	h-12.4c-2.8,0-5.1-2.3-5.1-5.1V48.1z"/>
<path class="st2" d="M334.9,43h39.5c2.8,0,5.1,2.3,5.1,5.1v12.4c0,2.8-2.3,5.1-5.1,5.1h-39.2c-0.5,0-0.8,0.5-0.7,0.9l22.2,66.5
	c0.1,0.3,0.3,0.4,0.6,0.4h21.3c0.4,0,0.7-0.4,0.6-0.8l-14.8-44.4l16.3,0c11.8,0,21.4-9.6,21.4-21.4v-25c0-1.2-0.1-2.3-0.3-3.5
	L409.5,0l-25.7,20.6c-1-0.1-2-0.2-3-0.2h-45.8c-0.3,0-0.6,0.3-0.6,0.6v21.3C334.3,42.7,334.6,43,334.9,43z"/>
<path class="st2" d="M19.3,198.8l-6.1-18.8c-0.1-0.4-0.4-0.6-0.8-0.6H7.7c-0.4,0-0.7,0.2-0.8,0.6l-6.1,18.8
	c-0.2,0.5,0.1,0.8,0.6,0.8h3.6c0.4,0,0.7-0.2,0.8-0.6l0.8-2.6h7.1l0.8,2.6c0.1,0.4,0.4,0.6,0.8,0.6h3.6
	C19.2,199.6,19.4,199.3,19.3,198.8z M7.7,192l2.3-7.7l2.3,7.7H7.7z"/>
<path class="st2" d="M58,183.4c2.2,0,4.1,1.1,4.9,2.8c0.2,0.4,0.4,0.6,0.8,0.6h3.4c0.5,0,0.8-0.3,0.6-0.8c-1.2-4.2-5.1-7.1-9.7-7.1
	c-6.1,0-10.5,4.6-10.5,10.5c0,6,4.4,10.5,10.5,10.5c4.7,0,8.6-3,9.7-7.2c0.1-0.5-0.1-0.8-0.6-0.8h-3.4c-0.4,0-0.6,0.2-0.8,0.6
	c-0.8,1.8-2.7,2.8-4.9,2.8c-3.6,0-5.9-2.4-5.9-6S54.4,183.4,58,183.4z"/>
<path class="st2" d="M107.7,183.4c2.2,0,4.1,1.1,4.9,2.8c0.2,0.4,0.4,0.6,0.8,0.6h3.4c0.5,0,0.8-0.3,0.6-0.8
	c-1.2-4.2-5.1-7.1-9.7-7.1c-6.1,0-10.5,4.6-10.5,10.5c0,6,4.4,10.5,10.5,10.5c4.7,0,8.6-3,9.7-7.2c0.1-0.5-0.1-0.8-0.6-0.8h-3.4
	c-0.4,0-0.6,0.2-0.8,0.6c-0.8,1.8-2.7,2.8-4.9,2.8c-3.6,0-5.9-2.4-5.9-6S104.1,183.4,107.7,183.4z"/>
<path class="st2" d="M159.2,195.1h-6.8v-3.6h5.9c0.5,0,0.7-0.3,0.7-0.7v-2.9c0-0.5-0.3-0.7-0.7-0.7h-5.9v-3.4h6.7
	c0.5,0,0.7-0.3,0.7-0.7v-3c0-0.5-0.3-0.7-0.7-0.7h-6.7h-3.9c-0.5,0-0.7,0.3-0.7,0.7v18.8c0,0.5,0.3,0.7,0.7,0.7h0.7h10
	c0.5,0,0.7-0.3,0.7-0.7v-3C159.9,195.4,159.6,195.1,159.2,195.1z"/>
<path class="st2" d="M201.4,195.1h-6.2V180c0-0.5-0.3-0.7-0.7-0.7h-3.2c-0.5,0-0.7,0.3-0.7,0.7v18.8c0,0.5,0.3,0.7,0.7,0.7h1.6h8.5
	c0.5,0,0.7-0.3,0.7-0.7v-3C202.2,195.4,201.9,195.1,201.4,195.1z"/>
<path class="st2" d="M243.7,195.1h-6.8v-3.6h5.9c0.5,0,0.7-0.3,0.7-0.7v-2.9c0-0.5-0.3-0.7-0.7-0.7h-5.9v-3.4h6.7
	c0.5,0,0.7-0.3,0.7-0.7v-3c0-0.5-0.3-0.7-0.7-0.7h-6.7H233c-0.5,0-0.7,0.3-0.7,0.7v18.8c0,0.5,0.3,0.7,0.7,0.7h0.7h10
	c0.5,0,0.7-0.3,0.7-0.7v-3C244.4,195.4,244.2,195.1,243.7,195.1z"/>
<path class="st2" d="M291.5,198.7l-5.2-6.6c2.1-1.2,3.6-3.4,3.6-5.8c0-3.8-3.1-6.9-6.9-6.9h-3.2h-3.9c-0.5,0-0.7,0.3-0.7,0.7v18.8
	c0,0.5,0.3,0.7,0.7,0.7h3.2c0.5,0,0.7-0.3,0.7-0.7v-5.9h1.8l4.9,6.2c0.2,0.3,0.5,0.4,0.9,0.4h3.7
	C291.7,199.6,291.9,199.1,291.5,198.7L291.5,198.7z M282.9,188.9h-3.2v-5.2h3.2c1.3,0,2.3,1.1,2.3,2.6S284.2,188.9,282.9,188.9z"/>
<path class="st2" d="M332.4,179.9c-0.1-0.4-0.4-0.6-0.8-0.6h-4.6c-0.4,0-0.7,0.2-0.8,0.6l-6.1,18.8c-0.2,0.5,0.1,0.8,0.6,0.8h3.6
	c0.4,0,0.7-0.2,0.8-0.6l0.8-2.6h7.1l0.8,2.6c0.1,0.4,0.4,0.6,0.8,0.6h3.6c0.5,0,0.8-0.3,0.6-0.8L332.4,179.9z M327,192l2.3-7.7
	l2.3,7.7H327z"/>
<path class="st2" d="M378.9,179.3H375h-8.5c-0.5,0-0.7,0.3-0.7,0.7v3c0,0.5,0.3,0.7,0.7,0.7h3.9v15.1c0,0.5,0.3,0.7,0.7,0.7h3.2
	c0.5,0,0.7-0.3,0.7-0.7v-15.1h3.9c0.5,0,0.7-0.3,0.7-0.7v-3C379.6,179.6,379.4,179.3,378.9,179.3z"/>
<path class="st2" d="M418.3,178.9c-5.8,0-10.5,4.6-10.5,10.5c0,6,4.7,10.5,10.5,10.5c5.8,0,10.5-4.6,10.5-10.5
	C428.8,183.5,424.1,178.9,418.3,178.9z M418.3,195.5c-3.3,0-5.9-2.4-5.9-6s2.6-6,5.9-6c3.3,0,5.9,2.4,5.9,6S421.5,195.5,418.3,195.5
	z"/>
<path class="st2" d="M475.8,198.7l-5.2-6.6c2.1-1.2,3.6-3.4,3.6-5.8c0-3.8-3.1-6.9-6.9-6.9h-3.2h-3.9c-0.5,0-0.7,0.3-0.7,0.7v18.8
	c0,0.5,0.3,0.7,0.7,0.7h3.2c0.5,0,0.7-0.3,0.7-0.7v-5.9h1.8l4.9,6.2c0.2,0.3,0.5,0.4,0.9,0.4h3.7C476,199.6,476.2,199.1,475.8,198.7
	L475.8,198.7z M467.3,188.9h-3.2v-5.2h3.2c1.3,0,2.3,1.1,2.3,2.6S468.6,188.9,467.3,188.9z"/>
<g>
	<g>
		<rect x="1150.9" y="149.3" class="st1" width="304.6" height="13.1"/>
	</g>
	<g>
		<rect x="1103.5" y="149.3" class="st1" width="37.2" height="13.1"/>
	</g>
	<g>
		<rect x="1065.3" y="149.3" class="st1" width="24" height="13.1"/>
	</g>
	<g>
		<rect x="1028.3" y="149.3" class="st1" width="22.4" height="13.1"/>
	</g>
	<g>
		<rect x="1002.9" y="149.3" class="st1" width="11.9" height="13.1"/>
	</g>
	<g>
		<rect x="977.8" y="149.3" class="st1" width="7.6" height="13.1"/>
	</g>
</g>
<g>
	<polygon class="st3" points="1359.9,21.9 1387.3,0 1379.2,40.1 	"/>
	<path class="st3" d="M1098.9,21v45.6c0,0.6-0.8,0.8-1.1,0.2l-21.5-46.5h-22.6v112.4c0,0.3,0.3,0.6,0.6,0.6h21.3
		c0.3,0,0.6-0.3,0.6-0.6V73.4c0-0.6,0.8-0.8,1.1-0.2l21.5,46.4v13.1c0,0.3,0.3,0.6,0.6,0.6h21.3c0.3,0,0.6-0.3,0.6-0.6V21
		c0-0.3-0.3-0.6-0.6-0.6h-21.3C1099.2,20.4,1098.9,20.6,1098.9,21z"/>
	<path class="st3" d="M1432.9,21v45.6c0,0.6-0.8,0.8-1.1,0.2l-21.5-46.5h-22.6v112.4c0,0.3,0.3,0.6,0.6,0.6h21.3
		c0.3,0,0.6-0.3,0.6-0.6V73.4c0-0.6,0.8-0.8,1.1-0.2l21.5,46.4v13.1c0,0.3,0.3,0.6,0.6,0.6h21.3c0.3,0,0.6-0.3,0.6-0.6V21
		c0-0.3-0.3-0.6-0.6-0.6h-21.3C1433.2,20.4,1432.9,20.6,1432.9,21z"/>
	<path class="st3" d="M1151.6,133.4h-21.3c-0.3,0-0.6-0.3-0.6-0.6V21c0-0.3,0.3-0.6,0.6-0.6h21.3c0.3,0,0.6,0.3,0.6,0.6v111.8
		C1152.2,133.1,1152,133.4,1151.6,133.4z"/>
	<path class="st3" d="M1023,21v84.7c0,2.8-2.3,5.1-5.1,5.1l-12.4,0c-2.8,0-5.1-2.3-5.1-5.1V21c0-0.3-0.3-0.6-0.6-0.6h-21.3
		c-0.3,0-0.6,0.3-0.6,0.6v91c0,11.8,9.6,21.4,21.4,21.4h25c11.8,0,21.4-9.6,21.4-21.4V21c0-0.3-0.3-0.6-0.6-0.6h-21.3
		C1023.3,20.4,1023,20.6,1023,21z"/>
	<path class="st3" d="M1160.2,41.8l0,70.2c0,11.8,9.6,21.4,21.4,21.4h25c11.8,0,21.4-9.6,21.4-21.4V88.8c0-0.3-0.3-0.6-0.6-0.6H1206
		c-0.3,0-0.6,0.3-0.6,0.6v16.9c0,2.8-2.3,5.1-5.1,5.1h-12.4c-2.8,0-5.1-2.3-5.1-5.1V48.1c0-2.8,2.3-5.1,5.1-5.1h12.4
		c2.8,0,5.1,2.3,5.1,5.1v16.9c0,0.3,0.3,0.6,0.6,0.6h21.3c0.3,0,0.6-0.3,0.6-0.6V41.8c0-11.8-9.6-21.4-21.4-21.4h-25
		C1169.8,20.4,1160.2,29.9,1160.2,41.8z"/>
	<path class="st3" d="M1282.6,20.4h-25c-11.8,0-21.4,9.6-21.4,21.4V112c0,11.8,9.6,21.4,21.4,21.4h25c11.8,0,21.4-9.6,21.4-21.4
		V41.8C1304,29.9,1294.4,20.4,1282.6,20.4z M1263.8,43h12.4c2.8,0,5.1,2.3,5.1,5.1v57.6c0,2.8-2.3,5.1-5.1,5.1h-12.4
		c-2.8,0-5.1-2.3-5.1-5.1V48.1C1258.7,45.3,1261,43,1263.8,43z"/>
	<path class="st3" d="M1312.1,21v21.3c0,0.3,0.3,0.6,0.6,0.6h39.5c2.8,0,5.1,2.3,5.1,5.1v12.4c0,2.8-2.3,5.1-5.1,5.1H1313
		c-0.5,0-0.8,0.5-0.7,0.9l22.2,66.5c0.1,0.3,0.3,0.4,0.6,0.4h21.3c0.4,0,0.7-0.4,0.6-0.8l-14.8-44.4l16.3,0
		c11.8,0,21.4-9.6,21.4-21.4v-25c0-11.8-9.6-21.4-21.4-21.4h-45.8C1312.4,20.4,1312.1,20.6,1312.1,21z"/>
</g>
<text transform="matrix(0.7 0 0 0.7 978.2133 199.5673)" style="font-family:'QanelasSoftDEMO-ExtraBold'; font-size:41.3045px; letter-spacing:40;">accelerator</text>
</svg>
